<svg width="120" height="40" viewBox="0 0 120 40" fill="none" xmlns="http://www.w3.org/2000/svg">
<path d="M110.471 7.92969e-06H9.87062C9.50392 7.92969e-06 9.14162 7.92975e-06 8.77589 0.00200793C8.46974 0.00400793 8.16603 0.00981793 7.85694 0.0147079C7.18545 0.0226097 6.51554 0.0816842 5.85304 0.191418C5.19146 0.303541 4.55061 0.514924 3.95216 0.818418C3.35444 1.12448 2.80828 1.52218 2.33351 1.99708C1.85624 2.47064 1.4584 3.01802 1.15529 3.61817C0.851338 4.21712 0.640578 4.85895 0.530288 5.52149C0.418948 6.18319 0.359036 6.85253 0.351088 7.52349C0.341808 7.83009 0.340827 8.13771 0.335938 8.44435V31.5586C0.340827 31.8691 0.341808 32.1699 0.351088 32.4805C0.359038 33.1514 0.418951 33.8207 0.530288 34.4824C0.640273 35.1453 0.851046 35.7875 1.15529 36.3867C1.45826 36.9849 1.85616 37.5301 2.33351 38.001C2.80648 38.478 3.35299 38.876 3.95216 39.1797C4.55061 39.484 5.19139 39.6967 5.85304 39.8105C6.51566 39.9194 7.18549 39.9785 7.85694 39.9873C8.16603 39.9941 8.46974 39.998 8.77589 39.998C9.14161 40 9.50394 40 9.87062 40H110.471C110.83 40 111.195 40 111.555 39.998C111.859 39.998 112.172 39.9941 112.477 39.9873C113.147 39.9789 113.815 39.9198 114.477 39.8105C115.14 39.6959 115.783 39.4833 116.385 39.1797C116.983 38.8758 117.529 38.4779 118.002 38.001C118.478 37.5282 118.877 36.9835 119.184 36.3867C119.486 35.7871 119.694 35.145 119.803 34.4824C119.914 33.8206 119.976 33.1515 119.988 32.4805C119.992 32.1699 119.992 31.8691 119.992 31.5586C120 31.1953 120 30.834 120 30.4648V9.53614C120 9.16993 120 8.80665 119.992 8.44435C119.992 8.13771 119.992 7.83009 119.988 7.52345C119.976 6.85243 119.914 6.18324 119.803 5.52145C119.694 4.85929 119.485 4.21751 119.184 3.61813C118.566 2.4152 117.588 1.43603 116.385 0.818328C115.783 0.515575 115.14 0.304248 114.477 0.191328C113.815 0.0811107 113.147 0.0220157 112.477 0.0145679C112.172 0.00968793 111.859 0.00382793 111.555 0.00187793C111.195 -0.00012207 110.83 7.92969e-06 110.471 7.92969e-06Z" fill="black"/>
<path d="M8.78077 39.1249C8.47609 39.1249 8.17877 39.121 7.87648 39.1142C7.25026 39.106 6.6255 39.0515 6.00734 38.9511C5.43093 38.8518 4.87254 38.6671 4.3506 38.4032C3.83344 38.1414 3.36175 37.7981 2.9536 37.3866C2.53954 36.9799 2.19481 36.5081 1.93309 35.9901C1.66848 35.4687 1.48535 34.9098 1.39009 34.3329C1.28721 33.713 1.23155 33.0862 1.22359 32.4579C1.21725 32.247 1.20895 31.5448 1.20895 31.5448V8.44422C1.20895 8.44422 1.21779 7.75281 1.22364 7.54968C1.23126 6.92236 1.2866 6.29653 1.38917 5.67761C1.48461 5.09913 1.66787 4.53863 1.93263 4.01551C2.19339 3.49782 2.5362 3.02574 2.94777 2.61756C3.35887 2.2055 3.83207 1.86048 4.35011 1.59509C4.87085 1.33197 5.42818 1.14861 6.00343 1.05115C6.62362 0.949714 7.25055 0.894874 7.87894 0.887088L8.78126 0.874878H111.55L112.463 0.887578C113.086 0.894977 113.707 0.949328 114.321 1.05017C114.902 1.14885 115.466 1.33349 115.992 1.59802C117.03 2.13286 117.874 2.97904 118.407 4.01795C118.668 4.53746 118.848 5.09338 118.942 5.66687C119.046 6.29087 119.104 6.92162 119.116 7.55408C119.119 7.83728 119.119 8.14148 119.119 8.44422C119.127 8.81922 119.127 9.17615 119.127 9.53601V30.4647C119.127 30.828 119.127 31.1825 119.119 31.5399C119.119 31.8651 119.119 32.163 119.115 32.4696C119.104 33.0908 119.046 33.7102 118.944 34.3231C118.851 34.9041 118.669 35.4674 118.404 35.9931C118.141 36.5055 117.798 36.9731 117.389 37.3788C116.98 37.7926 116.508 38.1378 115.989 38.4013C115.464 38.6673 114.902 38.8526 114.321 38.9511C113.703 39.052 113.078 39.1066 112.452 39.1142C112.159 39.121 111.853 39.1249 111.555 39.1249L110.471 39.1269L8.78077 39.1249Z" fill="white"/>
<path d="M25.3326 19.8892C25.3438 19.0212 25.5744 18.1702 26.0028 17.4153C26.4313 16.6604 27.0438 16.0261 27.7832 15.5715C27.3135 14.9006 26.6937 14.3485 25.9733 13.959C25.2528 13.5695 24.4514 13.3533 23.6328 13.3277C21.8866 13.1444 20.1937 14.3727 19.3038 14.3727C18.3968 14.3727 17.0267 13.3459 15.5514 13.3763C14.5971 13.4071 13.6671 13.6846 12.8519 14.1817C12.0368 14.6789 11.3643 15.3787 10.9 16.213C8.88889 19.695 10.389 24.8124 12.3155 27.627C13.2794 29.0052 14.4059 30.5447 15.8799 30.4901C17.3223 30.4303 17.861 29.5704 19.6021 29.5704C21.327 29.5704 21.8324 30.4901 23.3364 30.4554C24.8841 30.4303 25.8593 29.0711 26.7894 27.6798C27.4819 26.6978 28.0148 25.6124 28.3684 24.4639C27.4691 24.0836 26.7018 23.447 26.162 22.6335C25.6221 21.82 25.3337 20.8655 25.3326 19.8892Z" fill="black"/>
<path d="M22.4921 11.4767C23.336 10.4636 23.7517 9.16148 23.651 7.8468C22.3618 7.98222 21.1708 8.59842 20.3155 9.57262C19.8973 10.0485 19.577 10.6022 19.373 11.202C19.1689 11.8018 19.085 12.4359 19.1262 13.0681C19.771 13.0748 20.409 12.935 20.992 12.6593C21.5751 12.3837 22.0879 11.9793 22.4921 11.4767Z" fill="black"/>
<path d="M42.6377 27.1396H37.9043L36.7676 30.496H34.7627L39.2461 18.078H41.3291L45.8125 30.496H43.7735L42.6377 27.1396ZM38.3946 25.5907H42.1466L40.2969 20.1435H40.2451L38.3946 25.5907Z" fill="black"/>
<path d="M55.4951 25.9697C55.4951 28.7832 53.9893 30.5908 51.7168 30.5908C51.1412 30.6209 50.5687 30.4883 50.0649 30.2082C49.5611 29.928 49.1464 29.5117 48.8682 29.0068H48.8252V33.4912H46.9668V21.4423H48.7656V22.9482H48.7998C49.0908 22.4457 49.5125 22.0316 50.0201 21.7497C50.5277 21.4679 51.1023 21.3289 51.6826 21.3476C53.9805 21.3476 55.4951 23.164 55.4951 25.9697ZM53.585 25.9697C53.585 24.1367 52.6377 22.9316 51.1924 22.9316C49.7725 22.9316 48.8174 24.1621 48.8174 25.9697C48.8174 27.7939 49.7725 29.0156 51.1924 29.0156C52.6377 29.0156 53.585 27.8193 53.585 25.9697Z" fill="black"/>
<path d="M65.4605 25.9697C65.4605 28.7832 63.9541 30.5908 61.6817 30.5908C61.106 30.6209 60.5335 30.4883 60.0297 30.2082C59.5259 29.928 59.1112 29.5117 58.833 29.0068H58.79V33.4912H56.9316V21.4423H58.7305V22.9482H58.7646C59.0556 22.4457 59.4773 22.0316 59.9849 21.7497C60.4926 21.4679 61.0671 21.3289 61.6474 21.3476C63.9453 21.3476 65.4605 23.164 65.4605 25.9697ZM63.5498 25.9697C63.5498 24.1367 62.6026 22.9316 61.1572 22.9316C59.7373 22.9316 58.7822 24.1621 58.7822 25.9697C58.7822 27.7939 59.7373 29.0156 61.1572 29.0156C62.6026 29.0156 63.5498 27.8193 63.5498 25.9697Z" fill="black"/>
<path d="M72.0454 27.0361C72.1831 28.2675 73.3794 29.0761 75.0142 29.0761C76.5806 29.0761 77.7075 28.2675 77.7075 27.1571C77.7075 26.1932 77.0279 25.6161 75.4185 25.2206L73.8091 24.8329C71.5288 24.2821 70.4702 23.2157 70.4702 21.4852C70.4702 19.3427 72.3374 17.871 74.9878 17.871C77.6128 17.871 79.4116 19.3427 79.4722 21.4852H77.5962C77.4839 20.246 76.4595 19.4979 74.9624 19.4979C73.4653 19.4979 72.4409 20.2548 72.4409 21.3563C72.4409 22.2343 73.0952 22.7509 74.6958 23.1463L76.064 23.4823C78.6118 24.0848 79.6694 25.1083 79.6694 26.9247C79.6694 29.2479 77.8198 30.703 74.8764 30.703C72.1225 30.703 70.2632 29.2821 70.143 27.036L72.0454 27.0361Z" fill="black"/>
<path d="M83.6822 19.2997V21.4423H85.4038V22.9139H83.6822V27.9052C83.6822 28.6805 84.0269 29.0419 84.7837 29.0419C84.9881 29.0383 85.1922 29.024 85.395 28.9989V30.4618C85.0548 30.5253 84.7089 30.5541 84.3628 30.5477C82.5298 30.5477 81.815 29.8592 81.815 28.1034V22.9139H80.4986V21.4423H81.8149V19.2997H83.6822Z" fill="black"/>
<path d="M86.3999 25.9696C86.3999 23.121 88.0777 21.3309 90.6939 21.3309C93.3189 21.3309 94.9888 23.1209 94.9888 25.9696C94.9888 28.8261 93.3277 30.6083 90.6939 30.6083C88.061 30.6083 86.3999 28.826 86.3999 25.9696ZM93.0952 25.9696C93.0952 24.0155 92.1997 22.8622 90.6939 22.8622C89.188 22.8622 88.2925 24.0243 88.2925 25.9696C88.2925 27.9315 89.188 29.0761 90.6939 29.0761C92.1997 29.0761 93.0952 27.9315 93.0952 25.9696Z" fill="black"/>
<path d="M96.521 21.4423H98.2935V22.9833H98.3365C98.4564 22.502 98.7383 22.0766 99.1349 21.7788C99.5315 21.4809 100.019 21.3286 100.514 21.3475C100.728 21.3468 100.942 21.37 101.151 21.4169V23.1551C100.881 23.0725 100.599 23.0346 100.316 23.0428C100.046 23.0319 99.7768 23.0795 99.5269 23.1824C99.2771 23.2853 99.0525 23.441 98.8685 23.6389C98.6845 23.8368 98.5456 24.0721 98.4611 24.3288C98.3767 24.5855 98.3488 24.8574 98.3794 25.1258V30.496H96.521L96.521 21.4423Z" fill="black"/>
<path d="M109.719 27.8368C109.469 29.4803 107.869 30.6083 105.821 30.6083C103.187 30.6083 101.552 28.8436 101.552 26.0126C101.552 23.1727 103.196 21.3309 105.743 21.3309C108.248 21.3309 109.823 23.0516 109.823 25.7968V26.4335H103.428V26.5458C103.399 26.879 103.44 27.2146 103.551 27.5305C103.661 27.8463 103.837 28.1351 104.067 28.3777C104.298 28.6202 104.577 28.811 104.887 28.9373C105.196 29.0636 105.53 29.1225 105.864 29.1102C106.303 29.1514 106.744 29.0497 107.12 28.8202C107.497 28.5908 107.79 28.2459 107.955 27.8368L109.719 27.8368ZM103.437 25.1346H107.963C107.98 24.835 107.935 24.5352 107.83 24.254C107.725 23.9728 107.564 23.7163 107.355 23.5005C107.147 23.2847 106.896 23.1144 106.618 23.0002C106.341 22.886 106.043 22.8303 105.743 22.8368C105.44 22.835 105.14 22.8931 104.86 23.0079C104.58 23.1226 104.325 23.2917 104.111 23.5053C103.897 23.7189 103.727 23.9729 103.611 24.2526C103.495 24.5322 103.436 24.832 103.437 25.1346Z" fill="black"/>
<path d="M38.1621 8.73089C38.5517 8.70293 38.9427 8.76179 39.3068 8.90323C39.6709 9.04466 39.9991 9.26514 40.2677 9.54876C40.5363 9.83239 40.7386 10.1721 40.86 10.5434C40.9814 10.9146 41.0189 11.3082 40.9697 11.6957C40.9697 13.602 39.9395 14.6977 38.1621 14.6977H36.0069V8.73089H38.1621ZM36.9336 13.8539H38.0586C38.337 13.8705 38.6156 13.8249 38.8742 13.7203C39.1327 13.6157 39.3647 13.4547 39.5532 13.2491C39.7417 13.0436 39.8819 12.7986 39.9638 12.532C40.0457 12.2653 40.067 11.9838 40.0264 11.7079C40.0641 11.4331 40.0405 11.1533 39.9574 10.8886C39.8743 10.624 39.7337 10.381 39.5456 10.177C39.3575 9.9731 39.1267 9.81329 38.8696 9.70905C38.6125 9.60481 38.3356 9.55873 38.0586 9.5741H36.9336V13.8539Z" fill="black"/>
<path d="M42.0166 12.4443C41.9883 12.1484 42.0222 11.8498 42.116 11.5677C42.2098 11.2857 42.3616 11.0263 42.5615 10.8063C42.7615 10.5864 43.0052 10.4106 43.2771 10.2903C43.5489 10.17 43.8429 10.1079 44.1402 10.1079C44.4374 10.1079 44.7314 10.17 45.0033 10.2903C45.2751 10.4106 45.5188 10.5864 45.7188 10.8063C45.9187 11.0263 46.0705 11.2857 46.1643 11.5677C46.2582 11.8498 46.292 12.1484 46.2637 12.4443C46.2925 12.7405 46.2591 13.0395 46.1655 13.322C46.0719 13.6045 45.9202 13.8644 45.7202 14.0848C45.5203 14.3052 45.2764 14.4813 45.0042 14.6019C44.7321 14.7224 44.4378 14.7847 44.1402 14.7847C43.8425 14.7847 43.5482 14.7224 43.2761 14.6019C43.004 14.4813 42.7601 14.3052 42.5601 14.0848C42.3601 13.8644 42.2084 13.6045 42.1148 13.322C42.0212 13.0395 41.9878 12.7405 42.0166 12.4443ZM45.3496 12.4443C45.3496 11.4682 44.9111 10.8974 44.1416 10.8974C43.3692 10.8974 42.9346 11.4682 42.9346 12.4443C42.9346 13.4282 43.3692 13.9946 44.1416 13.9946C44.9112 13.9946 45.3496 13.4243 45.3496 12.4443Z" fill="black"/>
<path d="M51.9092 14.6976H50.9873L50.0567 11.3812H49.9864L49.0596 14.6976H48.1465L46.9053 10.1947H47.8067L48.6133 13.6307H48.6797L49.6055 10.1947H50.458L51.3838 13.6307H51.4541L52.2569 10.1947H53.1455L51.9092 14.6976Z" fill="black"/>
<path d="M54.1895 10.1947H55.0449V10.9101H55.1113C55.224 10.6532 55.414 10.4378 55.6549 10.294C55.8957 10.1502 56.1755 10.0851 56.4551 10.1078C56.6742 10.0914 56.8942 10.1244 57.0988 10.2045C57.3034 10.2846 57.4873 10.4097 57.637 10.5705C57.7867 10.7314 57.8983 10.9238 57.9635 11.1337C58.0287 11.3435 58.0458 11.5653 58.0137 11.7826V14.6976H57.125V12.0058C57.125 11.2822 56.8106 10.9223 56.1533 10.9223C56.0046 10.9154 55.8561 10.9407 55.718 10.9965C55.58 11.0523 55.4556 11.1374 55.3535 11.2457C55.2514 11.3541 55.1739 11.4833 55.1264 11.6244C55.0788 11.7656 55.0624 11.9153 55.0781 12.0634V14.6977H54.1895L54.1895 10.1947Z" fill="black"/>
<path d="M59.4297 8.43689H60.3184V14.6976H59.4297V8.43689Z" fill="black"/>
<path d="M61.5537 12.4443C61.5254 12.1483 61.5593 11.8497 61.6532 11.5676C61.747 11.2856 61.8988 11.0262 62.0988 10.8062C62.2987 10.5862 62.5425 10.4105 62.8143 10.2902C63.0862 10.1699 63.3802 10.1078 63.6775 10.1078C63.9748 10.1078 64.2688 10.1699 64.5407 10.2902C64.8125 10.4105 65.0563 10.5862 65.2562 10.8062C65.4562 11.0262 65.608 11.2856 65.7018 11.5676C65.7957 11.8497 65.8296 12.1483 65.8013 12.4443C65.8301 12.7405 65.7966 13.0395 65.703 13.322C65.6094 13.6045 65.4577 13.8643 65.2577 14.0847C65.0577 14.3051 64.8137 14.4813 64.5416 14.6018C64.2695 14.7223 63.9751 14.7846 63.6775 14.7846C63.3799 14.7846 63.0855 14.7223 62.8134 14.6018C62.5413 14.4813 62.2974 14.3051 62.0973 14.0847C61.8973 13.8643 61.7456 13.6045 61.652 13.322C61.5584 13.0395 61.5249 12.7405 61.5537 12.4443ZM64.8867 12.4443C64.8867 11.4682 64.4482 10.8974 63.6787 10.8974C62.9063 10.8974 62.4717 11.4682 62.4717 12.4443C62.4717 13.4282 62.9063 13.9946 63.6787 13.9946C64.4483 13.9945 64.8867 13.4242 64.8867 12.4443Z" fill="black"/>
<path d="M66.7368 13.4242C66.7368 12.6136 67.3404 12.1464 68.4116 12.0799L69.6314 12.0096V11.621C69.6314 11.1454 69.3169 10.8768 68.7095 10.8768C68.2134 10.8768 67.8697 11.059 67.771 11.3773H66.9107C67.0015 10.6039 67.729 10.1078 68.7505 10.1078C69.8794 10.1078 70.5161 10.6698 70.5161 11.621V14.6976H69.6607V14.0648H69.5904C69.4476 14.2918 69.2472 14.4769 69.0096 14.6011C68.772 14.7253 68.5057 14.7842 68.2378 14.7718C68.0488 14.7915 67.8577 14.7713 67.677 14.7126C67.4962 14.6539 67.3298 14.558 67.1883 14.431C67.0469 14.3041 66.9337 14.1489 66.8559 13.9754C66.7782 13.802 66.7376 13.6142 66.7368 13.4242ZM69.6314 13.0394V12.663L68.5318 12.7333C67.9116 12.7748 67.6304 12.9857 67.6304 13.3827C67.6304 13.7879 67.982 14.0238 68.4654 14.0238C68.607 14.0381 68.7501 14.0238 68.8861 13.9817C69.0221 13.9396 69.1483 13.8706 69.2571 13.7788C69.3658 13.6869 69.4551 13.5742 69.5194 13.4471C69.5837 13.3201 69.6218 13.1815 69.6314 13.0394Z" fill="black"/>
<path d="M71.6841 12.4442C71.6841 11.0214 72.4155 10.12 73.5532 10.12C73.8347 10.107 74.1139 10.1744 74.3585 10.3143C74.603 10.4542 74.8027 10.6608 74.9341 10.91H75.0005V8.43689H75.8892V14.6976H75.0376V13.9862H74.9673C74.8257 14.2337 74.6191 14.4377 74.3698 14.5762C74.1206 14.7147 73.8382 14.7823 73.5532 14.7718C72.4077 14.7719 71.6841 13.8705 71.6841 12.4442ZM72.6021 12.4442C72.6021 13.3993 73.0523 13.974 73.8052 13.974C74.5542 13.974 75.0171 13.391 75.0171 12.4481C75.0171 11.5097 74.5494 10.9183 73.8052 10.9183C73.0571 10.9183 72.6021 11.497 72.6021 12.4442Z" fill="black"/>
<path d="M79.5659 12.4443C79.5376 12.1484 79.5715 11.8498 79.6653 11.5677C79.7592 11.2857 79.9109 11.0263 80.1109 10.8063C80.3108 10.5864 80.5545 10.4106 80.8264 10.2903C81.0982 10.17 81.3922 10.1079 81.6895 10.1079C81.9867 10.1079 82.2807 10.17 82.5526 10.2903C82.8244 10.4106 83.0681 10.5864 83.2681 10.8063C83.468 11.0263 83.6198 11.2857 83.7136 11.5677C83.8075 11.8498 83.8413 12.1484 83.813 12.4443C83.8419 12.7405 83.8084 13.0395 83.7148 13.322C83.6212 13.6045 83.4696 13.8644 83.2696 14.0848C83.0696 14.3052 82.8257 14.4813 82.5535 14.6019C82.2814 14.7224 81.9871 14.7847 81.6895 14.7847C81.3919 14.7847 81.0975 14.7224 80.8254 14.6019C80.5533 14.4813 80.3094 14.3052 80.1094 14.0848C79.9094 13.8644 79.7577 13.6045 79.6641 13.322C79.5705 13.0395 79.5371 12.7405 79.5659 12.4443ZM82.8989 12.4443C82.8989 11.4682 82.4605 10.8974 81.6909 10.8974C80.9185 10.8974 80.4839 11.4682 80.4839 12.4443C80.4839 13.4282 80.9185 13.9946 81.6909 13.9946C82.4605 13.9946 82.8989 13.4243 82.8989 12.4443Z" fill="black"/>
<path d="M85.0054 10.1947H85.8609V10.9101H85.9273C86.0399 10.6532 86.2299 10.4378 86.4708 10.294C86.7117 10.1502 86.9914 10.0851 87.271 10.1078C87.4901 10.0914 87.7101 10.1244 87.9147 10.2045C88.1193 10.2846 88.3033 10.4097 88.4529 10.5705C88.6026 10.7314 88.7142 10.9238 88.7794 11.1337C88.8446 11.3435 88.8618 11.5653 88.8296 11.7826V14.6976H87.9409V12.0058C87.9409 11.2822 87.6265 10.9223 86.9693 10.9223C86.8205 10.9154 86.672 10.9407 86.5339 10.9965C86.3959 11.0523 86.2715 11.1374 86.1694 11.2457C86.0673 11.3541 85.9898 11.4833 85.9423 11.6244C85.8947 11.7656 85.8783 11.9153 85.8941 12.0634V14.6977H85.0054V10.1947Z" fill="black"/>
<path d="M93.8511 9.07361V10.2152H94.8267V10.9637H93.8511V13.2792C93.8511 13.7509 94.0454 13.9574 94.4878 13.9574C94.6011 13.957 94.7142 13.9502 94.8267 13.9369V14.6771C94.6671 14.7057 94.5054 14.7209 94.3433 14.7225C93.355 14.7225 92.9615 14.3749 92.9615 13.5067V10.9637H92.2466V10.2152H92.9615V9.07361H93.8511Z" fill="black"/>
<path d="M96.0406 8.43689H96.9214V10.9183H96.9917C97.1099 10.659 97.3051 10.4424 97.5508 10.2981C97.7965 10.1537 98.0807 10.0886 98.3647 10.1117C98.5827 10.0998 98.8006 10.1362 99.0029 10.2183C99.2051 10.3003 99.3868 10.426 99.5349 10.5863C99.6831 10.7467 99.794 10.9377 99.8597 11.1458C99.9255 11.354 99.9446 11.5741 99.9155 11.7904V14.6976H99.0259V12.0096C99.0259 11.2904 98.6909 10.9261 98.0631 10.9261C97.9103 10.9136 97.7567 10.9346 97.6129 10.9877C97.4691 11.0407 97.3387 11.1245 97.2307 11.2333C97.1227 11.342 97.0398 11.473 96.9877 11.6172C96.9356 11.7613 96.9157 11.9151 96.9293 12.0677V14.6976H96.0406L96.0406 8.43689Z" fill="black"/>
<path d="M105.097 13.4818C104.976 13.8933 104.715 14.2493 104.358 14.4874C104.001 14.7256 103.572 14.8307 103.146 14.7845C102.849 14.7923 102.555 14.7355 102.282 14.618C102.01 14.5004 101.766 14.325 101.568 14.1039C101.37 13.8827 101.223 13.6212 101.136 13.3374C101.049 13.0535 101.025 12.7543 101.066 12.4603C101.026 12.1654 101.051 11.8655 101.137 11.5808C101.224 11.2961 101.37 11.0334 101.567 10.8103C101.764 10.5872 102.007 10.409 102.278 10.2878C102.55 10.1666 102.845 10.1052 103.142 10.1077C104.395 10.1077 105.151 10.9637 105.151 12.3777V12.6878H101.971V12.7376C101.957 12.9029 101.978 13.0692 102.032 13.226C102.086 13.3827 102.173 13.5264 102.286 13.6479C102.398 13.7693 102.535 13.8658 102.688 13.9312C102.84 13.9966 103.005 14.0295 103.17 14.0276C103.383 14.0532 103.598 14.0149 103.789 13.9177C103.98 13.8205 104.137 13.6687 104.242 13.4817L105.097 13.4818ZM101.971 12.0306H104.246C104.257 11.8795 104.236 11.7277 104.185 11.5849C104.134 11.4422 104.054 11.3117 103.95 11.2019C103.845 11.092 103.719 11.0052 103.579 10.9471C103.439 10.8889 103.289 10.8606 103.137 10.8641C102.984 10.8622 102.831 10.891 102.689 10.949C102.546 11.0069 102.417 11.0928 102.308 11.2015C102.2 11.3102 102.114 11.4396 102.056 11.582C101.998 11.7244 101.969 11.8769 101.971 12.0306Z" fill="black"/>
</svg>
