<svg width="200" height="24" viewBox="0 0 200 24" fill="none" xmlns="http://www.w3.org/2000/svg">
<path d="M1.16211 19.9999V8.02185H2.88867L7.03906 18.1156H7.08887L11.2393 8.02185H12.9658V19.9999H11.5713V10.7445H11.5215L7.69482 19.9999H6.43311L2.60645 10.7445H2.55664V19.9999H1.16211ZM17.3403 20.1659C15.6221 20.1659 14.4683 19.1283 14.4683 17.5594V17.5428C14.4683 16.0736 15.6138 15.1522 17.5977 15.036L20.0713 14.8949V14.1727C20.0713 13.1185 19.3823 12.4794 18.1787 12.4794C17.0664 12.4794 16.3691 13.0106 16.2031 13.7826L16.1865 13.8573H14.792L14.8003 13.766C14.9248 12.3466 16.1616 11.201 18.1953 11.201C20.2373 11.201 21.5156 12.3051 21.5156 14.0316V19.9999H20.0713V18.597H20.0381C19.5317 19.5433 18.4941 20.1659 17.3403 20.1659ZM15.9458 17.5594C15.9458 18.3895 16.6265 18.9125 17.6641 18.9125C19.0254 18.9125 20.0713 17.9745 20.0713 16.7211V16.0155L17.7637 16.1566C16.6099 16.223 15.9458 16.7377 15.9458 17.5428V17.5594ZM26.5957 20.1659C24.3877 20.1659 22.9268 18.4061 22.9268 15.6835V15.6752C22.9268 12.9525 24.4043 11.201 26.5708 11.201C27.791 11.201 28.7954 11.8153 29.335 12.8114H29.3682V8.02185H30.8125V19.9999H29.3682V18.5389H29.335C28.7954 19.5433 27.8325 20.1659 26.5957 20.1659ZM26.8779 18.8876C28.3389 18.8876 29.3765 17.6176 29.3765 15.6835V15.6752C29.3765 13.7494 28.3306 12.4794 26.8779 12.4794C25.3506 12.4794 24.4043 13.7079 24.4043 15.6752V15.6835C24.4043 17.6674 25.3506 18.8876 26.8779 18.8876ZM36.3159 20.1659C33.834 20.1659 32.3398 18.431 32.3398 15.7167V15.7084C32.3398 13.0355 33.8672 11.201 36.2246 11.201C38.582 11.201 40.0181 12.9525 40.0181 15.5424V16.0736H33.8008C33.834 17.85 34.8135 18.8876 36.3491 18.8876C37.4448 18.8876 38.2168 18.3397 38.4658 17.601L38.4907 17.5262H39.9102L39.8936 17.6093C39.6113 19.037 38.2002 20.1659 36.3159 20.1659ZM36.2163 12.4794C34.9629 12.4794 33.9834 13.3344 33.8257 14.9447H38.5488C38.4077 13.2679 37.478 12.4794 36.2163 12.4794ZM46.6753 19.9999L44.2598 11.3671H45.6958L47.4224 18.3895H47.4556L49.4062 11.3671H50.8008L52.7598 18.3895H52.793L54.5195 11.3671H55.9473L53.54 19.9999H52.0708L50.1201 13.3177H50.0869L48.1445 19.9999H46.6753ZM57.9478 9.90613C57.4497 9.90613 57.043 9.49939 57.043 9.00134C57.043 8.495 57.4497 8.09656 57.9478 8.09656C58.4541 8.09656 58.8525 8.495 58.8525 9.00134C58.8525 9.49939 58.4541 9.90613 57.9478 9.90613ZM57.2256 19.9999V11.3671H58.6699V19.9999H57.2256ZM63.4429 20.1659C61.8574 20.1659 61.0771 19.452 61.0771 17.8002V12.5624H59.8154V11.3671H61.0771V9.03455H62.5713V11.3671H64.2148V12.5624H62.5713V17.7919C62.5713 18.7133 62.978 18.9706 63.75 18.9706C63.9243 18.9706 64.0903 18.9457 64.2148 18.9374V20.1078C64.0322 20.1327 63.7251 20.1659 63.4429 20.1659ZM65.8418 19.9999V8.02185H67.2861V12.745H67.3193C67.7842 11.7738 68.7222 11.201 70.0088 11.201C71.8433 11.201 73.0967 12.6205 73.0967 14.7123V19.9999H71.6523V14.9613C71.6523 13.4008 70.8555 12.4794 69.5107 12.4794C68.1743 12.4794 67.2861 13.4921 67.2861 14.9613V19.9999H65.8418ZM86.0107 21.5516C85.8672 21.5516 85.6621 21.4559 85.5186 21.3671C81.6631 18.9061 79.2227 16.0419 79.2227 13.1298C79.2227 10.7098 80.8838 9.00085 83.0303 9.00085C84.3633 9.00085 85.4023 9.74597 86.0107 10.8671C86.6328 9.73914 87.6582 9.00085 88.9912 9.00085C91.1377 9.00085 92.7988 10.7098 92.7988 13.1298C92.7988 16.0419 90.3584 18.9061 86.5098 21.3671C86.3594 21.4559 86.1543 21.5516 86.0107 21.5516ZM103.258 20.1659C102.021 20.1659 101.058 19.5433 100.519 18.5389H100.485V19.9999H99.041V8.02185H100.485V12.8114H100.519C101.058 11.8153 102.062 11.201 103.283 11.201C105.449 11.201 106.927 12.9525 106.927 15.6752V15.6835C106.927 18.4061 105.466 20.1659 103.258 20.1659ZM102.976 18.8876C104.503 18.8876 105.449 17.6674 105.449 15.6835V15.6752C105.449 13.7079 104.503 12.4794 102.976 12.4794C101.523 12.4794 100.477 13.7494 100.477 15.6752V15.6835C100.477 17.6176 101.515 18.8876 102.976 18.8876ZM108.877 22.9052C108.595 22.9052 108.288 22.8719 108.105 22.8387V21.66C108.23 21.6849 108.396 21.7098 108.57 21.7098C109.483 21.7098 109.99 21.4774 110.338 20.4979L110.513 20.0082L107.309 11.3671H108.853L111.235 18.5555H111.268L113.659 11.3671H115.178L111.808 20.5394C111.193 22.1913 110.438 22.9052 108.877 22.9052Z" fill="#9C9C9C"/>
<path d="M125.122 20.1991C121.694 20.1991 119.536 17.8085 119.536 13.9569V13.9486C119.536 10.1718 121.694 7.82263 125.097 7.82263C127.903 7.82263 129.663 9.44128 130.161 11.5995L130.194 11.7489H128.285L128.26 11.6576C127.753 10.2714 126.666 9.46619 125.105 9.46619C122.814 9.46619 121.428 11.1346 121.428 13.9403V13.9486C121.428 16.8124 122.856 18.5555 125.139 18.5555C127.081 18.5555 128.426 17.327 128.451 15.5092V15.3099H125.305V13.7909H130.285V15.0194C130.285 18.265 128.368 20.1991 125.122 20.1991ZM132.858 9.92273C132.277 9.92273 131.812 9.45789 131.812 8.89343C131.812 8.32068 132.277 7.85583 132.858 7.85583C133.448 7.85583 133.904 8.32068 133.904 8.89343C133.904 9.45789 133.448 9.92273 132.858 9.92273ZM131.962 19.9999V11.2675H133.755V19.9999H131.962ZM138.005 19.9999L134.859 11.2675H136.768L138.959 18.2484H139.001L141.192 11.2675H143.06L139.931 19.9999H138.005ZM147.484 20.1742C144.919 20.1742 143.367 18.4227 143.367 15.6669V15.6586C143.367 12.9276 144.944 11.1014 147.393 11.1014C149.842 11.1014 151.344 12.8612 151.344 15.4843V16.0902H145.16C145.193 17.7421 146.098 18.705 147.526 18.705C148.588 18.705 149.294 18.1571 149.518 17.5013L149.543 17.4349H151.245L151.228 17.5262C150.946 18.9125 149.601 20.1742 147.484 20.1742ZM147.401 12.5707C146.239 12.5707 145.343 13.3593 145.185 14.8202H149.568C149.418 13.3094 148.572 12.5707 147.401 12.5707ZM152.739 19.9999V11.2675H154.532V12.5873H154.573C155.03 11.6991 155.926 11.1014 157.246 11.1014C159.164 11.1014 160.268 12.3383 160.268 14.347V19.9999H158.466V14.6874C158.466 13.3759 157.852 12.6371 156.607 12.6371C155.345 12.6371 154.532 13.5502 154.532 14.9115V19.9999H152.739ZM165.065 20.1742C163.339 20.1742 162.509 19.4437 162.509 17.7006V12.6952H161.255V11.2675H162.509V8.99304H164.343V11.2675H165.979V12.6952H164.343V17.5927C164.343 18.4808 164.742 18.7465 165.497 18.7465C165.688 18.7465 165.846 18.7299 165.979 18.7133V20.0995C165.771 20.1327 165.431 20.1742 165.065 20.1742ZM171 20.1742C168.494 20.1742 166.858 18.4393 166.858 15.6337V15.6171C166.858 12.828 168.51 11.1014 170.992 11.1014C173.482 11.1014 175.143 12.8197 175.143 15.6171V15.6337C175.143 18.4476 173.499 20.1742 171 20.1742ZM171.009 18.6718C172.412 18.6718 173.308 17.5594 173.308 15.6337V15.6171C173.308 13.7079 172.395 12.6039 170.992 12.6039C169.614 12.6039 168.693 13.7079 168.693 15.6171V15.6337C168.693 17.5677 169.606 18.6718 171.009 18.6718Z" fill="#007AFF"/>
<path fill-rule="evenodd" clip-rule="evenodd" d="M182.018 15.7856C182.018 15.8106 182.043 15.8281 182.059 15.8381C182.096 15.8623 182.137 15.8764 182.179 15.8898C182.325 15.9381 182.485 15.9665 182.635 15.9923C182.853 16.0299 183.071 16.0599 183.289 16.0882C183.726 16.1449 184.163 16.1924 184.601 16.2383C185.039 16.2842 185.477 16.3275 185.914 16.3709C186.352 16.4142 186.79 16.4567 187.228 16.5051C186.503 16.4242 185.779 16.3442 185.055 16.2541C184.693 16.2091 184.332 16.1624 183.971 16.1049C183.79 16.0765 183.61 16.0457 183.432 16.0073C183.311 15.9815 183.18 15.9515 183.064 15.904C183.031 15.8898 182.998 15.8756 182.969 15.8523C182.954 15.8406 182.936 15.8231 182.936 15.7997C182.936 15.7722 182.96 15.7522 182.978 15.7397C183.018 15.7114 183.061 15.6947 183.106 15.678C183.177 15.6522 183.249 15.633 183.322 15.6146C183.423 15.5896 183.525 15.5688 183.627 15.5496C183.872 15.5029 184.118 15.4654 184.365 15.4304C184.859 15.3603 185.355 15.3011 185.851 15.2453C186.842 15.1327 187.835 15.0327 188.828 14.9326C187.684 15.0352 186.541 15.1352 185.398 15.2461C184.827 15.302 184.255 15.3595 183.685 15.4279C183.401 15.4621 183.116 15.4987 182.832 15.5429C182.713 15.5621 182.593 15.5821 182.473 15.6063C182.387 15.6238 182.302 15.643 182.219 15.668C182.167 15.6838 182.117 15.6988 182.068 15.7272C182.051 15.7372 182.02 15.7564 182.02 15.7847L182.018 15.7856Z" fill="#4646CA"/>
<path fill-rule="evenodd" clip-rule="evenodd" d="M194.325 7.81057C194.702 7.6755 194.701 7.00098 194.703 6.65247C194.703 6.59744 194.439 6.52657 194.401 6.51573L191.701 5.90458V4.56055H189.826V7.81974L194.324 7.81057H194.325Z" fill="url(#paint0_linear_438_950)"/>
<path fill-rule="evenodd" clip-rule="evenodd" d="M190.744 -0.000140219C190.638 -0.0293221 192.112 1.78412 192.112 2.55619C192.112 3.32826 191.499 3.95442 190.744 3.95442C189.989 3.95442 189.377 3.32826 189.377 2.55619C189.377 1.78412 190.851 0.0298754 190.744 -0.000140219Z" fill="url(#paint1_linear_438_950)"/>
<path fill-rule="evenodd" clip-rule="evenodd" d="M185.784 8.33923L185.788 9.50317C185.65 9.57237 185.512 9.65408 185.399 9.75247C185.31 9.82917 185.212 9.93756 185.212 10.0735C185.212 10.1985 185.299 10.2969 185.382 10.3686C185.523 10.4903 185.709 10.5796 185.875 10.6496C186.158 10.7688 186.448 10.8572 186.743 10.9372C187.332 11.0973 187.928 11.2157 188.528 11.3241C188.83 11.3791 189.145 11.4317 189.466 11.4825C190.348 11.6409 191.295 11.7844 192.139 11.9078C193.205 12.0637 194.272 12.2104 195.336 12.378C195.868 12.4622 196.399 12.5506 196.926 12.6606C197.19 12.7157 197.452 12.7757 197.711 12.8524C197.806 12.8808 197.901 12.9116 197.993 12.9483C198.066 12.9766 198.136 13.0075 198.204 13.0467C198.252 13.0742 198.297 13.1042 198.334 13.1476C198.359 13.1759 198.379 13.2101 198.379 13.251L198.392 10.8939C198.479 10.8839 198.566 10.873 198.652 10.8614C198.753 10.848 198.855 10.833 198.956 10.8147C199.006 10.8055 199.056 10.7955 199.106 10.7822C199.13 10.7755 199.155 10.7688 199.179 10.7597C199.193 10.7547 199.238 10.6955 199.238 10.6721C199.238 10.6471 199.19 10.6321 199.176 10.6271C199.15 10.6179 199.125 10.6112 199.099 10.6046C199.047 10.5921 198.995 10.5821 198.943 10.5737C198.837 10.5562 198.731 10.542 198.626 10.5295C198.414 10.5037 198.202 10.4828 197.99 10.4628C197.565 10.4236 197.141 10.3895 196.716 10.3553C196.113 10.3078 194.826 10.2094 194.199 10.151L194.166 10.1477C192.715 10.0109 191.268 9.86419 189.825 9.65491C189.103 9.54986 188.386 9.4323 187.675 9.26888C187.517 9.23219 187.359 9.19467 187.203 9.15215C187.248 9.13631 187.293 9.1213 187.339 9.1063C187.94 8.90619 188.552 8.74944 189.168 8.60187C189.782 8.45429 190.4 8.32089 191.018 8.18998C191.327 8.12412 191.637 8.05908 191.946 7.99322C192.077 7.9657 192.207 7.93735 192.337 7.90901C192.515 7.86982 192.694 7.8298 192.873 7.79395C192.208 7.92568 191.541 8.04658 190.875 8.17414C190.209 8.30088 189.543 8.43178 188.881 8.57769C188.224 8.72193 187.571 8.87701 186.927 9.07294C186.825 9.04126 186.724 9.00791 186.623 8.97122C186.451 8.90869 186.284 8.84032 186.124 8.74611C185.998 8.6719 185.786 8.52766 185.785 8.33923H185.784Z" fill="url(#paint2_linear_438_950)"/>
<path fill-rule="evenodd" clip-rule="evenodd" d="M182.935 15.8006C182.929 14.8026 182.925 13.8045 182.919 12.8065C182.919 12.8882 183.004 12.9533 183.054 12.9866C183.118 13.0291 183.185 13.0608 183.253 13.0908C183.391 13.15 183.531 13.1942 183.674 13.2351C183.958 13.3168 184.246 13.3801 184.536 13.4385C185.114 13.5544 185.694 13.647 186.276 13.7345C187.44 13.9088 188.606 14.0563 189.772 14.2056C191.518 14.409 193.264 14.61 195.006 14.8626C195.698 14.9626 200.006 15.5396 200.002 16.3033C200.001 16.4918 199.746 16.6827 199.635 16.7427C199.473 16.8294 199.306 16.8945 199.135 16.9545C199.117 16.9603 199.099 16.967 199.081 16.9729L199.068 19.2449C199.068 19.1532 199.035 19.0714 198.987 18.9989C198.922 18.8997 198.841 18.828 198.751 18.7605C198.63 18.6696 198.503 18.597 198.371 18.5312C198.205 18.4478 198.035 18.3769 197.863 18.3111C197.383 18.1301 196.87 17.9884 196.376 17.8683C196.088 17.7983 195.789 17.7316 195.484 17.6682C195.381 17.6832 195.278 17.6974 195.175 17.7124V17.7157C195.278 17.6999 195.381 17.6849 195.484 17.6682C193.751 17.3314 192.035 17.0771 190.289 16.8611C189.269 16.7352 188.249 16.6202 187.228 16.5059C186.503 16.4251 185.779 16.345 185.055 16.255C184.693 16.21 184.332 16.1633 183.971 16.1057C183.79 16.0774 183.61 16.0465 183.432 16.0082C183.311 15.9823 183.18 15.9523 183.063 15.9048C183.03 15.8906 182.997 15.8765 182.968 15.8531C182.953 15.8414 182.935 15.8239 182.935 15.8006Z" fill="url(#paint3_linear_438_950)"/>
<path fill-rule="evenodd" clip-rule="evenodd" d="M187.759 19.5292C189.105 19.6451 190.447 19.7868 191.787 19.9736C193.078 20.1537 194.51 20.3963 195.783 20.7131C196.431 20.8749 197.109 21.07 197.737 21.3259C197.958 21.416 198.174 21.5144 198.386 21.6311C198.556 21.7253 198.72 21.8279 198.875 21.9554C198.988 22.0497 199.102 22.163 199.182 22.2973C199.245 22.4032 199.288 22.5216 199.287 22.6533V22.6658V22.6716V22.6775V22.6833V22.6892V22.695C199.278 22.8076 199.238 22.9043 199.182 22.9885C199.098 23.116 198.979 23.2161 198.861 23.2953C198.653 23.4354 198.412 23.5371 198.179 23.6188C197.767 23.7622 197.334 23.8873 196.885 23.9982C196.337 23.7522 195.589 23.4996 195.033 23.3403C192.073 22.4907 186.452 21.7787 183.598 21.9196C183.463 21.9263 183.282 21.7045 183.147 21.7228C183.134 21.7245 180.267 18.8855 187.763 19.5292H187.759Z" fill="url(#paint4_linear_438_950)"/>
<path fill-rule="evenodd" clip-rule="evenodd" d="M194.703 6.65247C194.702 7.04434 194.7 7.43621 194.7 7.82724C194.7 7.86059 194.679 7.88644 194.658 7.90645C194.62 7.94147 194.576 7.96231 194.53 7.98232C194.456 8.01401 194.38 8.03735 194.302 8.0582C194.146 8.09989 193.989 8.13157 193.83 8.16075C193.512 8.21828 193.193 8.26414 192.872 8.30833C192.207 8.39921 191.54 8.47925 190.874 8.56513C190.208 8.65101 189.543 8.74105 188.88 8.84611C188.217 8.95116 187.558 9.06706 186.907 9.22631C186.582 9.30635 186.262 9.39473 185.95 9.51562C185.764 9.58816 185.557 9.67988 185.398 9.80744C185.309 9.87915 185.211 9.98087 185.212 10.1176C185.209 9.52146 185.207 8.92532 185.204 8.33001C185.203 8.14241 185.418 8.00484 185.54 7.93563C185.698 7.84725 185.865 7.78389 186.036 7.72636C186.378 7.61213 186.73 7.53126 187.084 7.46039C187.795 7.31865 188.513 7.2236 189.235 7.14355C189.958 7.06351 190.682 7.00181 191.408 6.94929C192.134 6.89676 192.861 6.85591 193.587 6.80838C193.777 6.79587 193.967 6.78337 194.156 6.76586C194.25 6.75752 194.345 6.74835 194.439 6.73501C194.486 6.72834 194.532 6.72167 194.579 6.71166C194.602 6.70666 194.625 6.70082 194.647 6.69332C194.661 6.68832 194.7 6.67498 194.701 6.65247H194.703Z" fill="url(#paint5_linear_438_950)"/>
<path fill-rule="evenodd" clip-rule="evenodd" d="M199.238 10.673C199.234 11.5368 199.228 12.4005 199.223 13.2643C199.223 13.316 199.186 13.3577 199.152 13.3877C199.087 13.4453 199.013 13.4811 198.936 13.5153C198.816 13.5686 198.693 13.6095 198.567 13.6479C198.395 13.6996 198.219 13.7437 198.043 13.7838C197.611 13.883 197.176 13.9605 196.739 14.0331C195.932 14.1665 194.921 14.304 194.109 14.3991C193.23 14.5016 192.35 14.5883 191.469 14.6751C190.589 14.7618 189.708 14.846 188.827 14.9294C187.683 15.0377 186.539 15.1453 185.397 15.262C184.825 15.3204 184.254 15.3813 183.684 15.4513C183.399 15.4863 183.115 15.5238 182.831 15.5689C182.711 15.588 182.591 15.608 182.471 15.6322C182.386 15.6497 182.301 15.6681 182.217 15.6923C182.166 15.7073 182.115 15.7223 182.067 15.749C182.05 15.759 182.018 15.7765 182.018 15.8031C182.012 14.8727 182.006 13.9413 182 13.0109C182 12.9433 182.073 12.8883 182.117 12.8583C182.172 12.8216 182.232 12.7941 182.292 12.7682C182.413 12.7165 182.538 12.6774 182.664 12.6415C182.917 12.569 183.173 12.5123 183.431 12.4606C183.945 12.3564 184.463 12.2738 184.982 12.1979C186.02 12.0454 187.062 11.9211 188.105 11.8061C189.148 11.6902 190.192 11.5851 191.235 11.4834C192.28 11.3817 193.323 11.28 194.369 11.1949C195.185 11.1282 196.002 11.0698 196.818 11.0015C197.225 10.9673 197.634 10.9314 198.042 10.8898C198.245 10.8689 198.448 10.8464 198.652 10.8197C198.753 10.8064 198.855 10.7914 198.956 10.773C199.006 10.7639 199.056 10.7539 199.106 10.7405C199.13 10.7338 199.155 10.7272 199.179 10.718C199.193 10.713 199.238 10.6972 199.238 10.673Z" fill="url(#paint6_linear_438_950)"/>
<path fill-rule="evenodd" clip-rule="evenodd" d="M199.982 19.2949C199.988 18.2977 199.994 17.2997 200 16.3016C199.999 16.4901 199.745 16.6351 199.633 16.6952C199.472 16.7819 199.305 16.8469 199.133 16.907C198.792 17.0262 198.445 17.1162 198.095 17.1971C197.393 17.3597 196.688 17.4831 195.979 17.5923C195.269 17.7024 194.559 17.7966 193.848 17.8816C193.136 17.9667 192.423 18.0434 191.71 18.1134C190.283 18.2527 188.854 18.3669 187.424 18.4644C185.993 18.562 184.563 18.6395 183.13 18.7096C182.947 18.7187 182.765 18.7271 182.582 18.7362C182.491 18.7412 182.4 18.7454 182.308 18.7512C182.263 18.7537 182.217 18.7571 182.171 18.7604C182.148 18.7621 182.126 18.7638 182.103 18.7663C182.091 18.7671 182.08 18.7688 182.069 18.7704L182.051 18.7729L182.043 18.7746L182.036 18.7788C182.042 19.7726 182.048 20.7673 182.054 21.7611C182.054 21.7778 182.079 21.787 182.088 21.7912C182.122 21.8053 182.157 21.8128 182.192 21.8203C182.333 21.8487 182.475 21.8612 182.617 21.8729C182.856 21.8929 183.096 21.9037 183.336 21.9121C183.671 21.9237 184.005 21.9279 184.34 21.9287C185.108 21.9312 185.875 21.9154 186.642 21.8879C187.41 21.8604 188.176 21.8212 188.943 21.7712C189.709 21.7211 190.474 21.6603 191.238 21.5877C192.003 21.5152 192.766 21.431 193.528 21.3318C194.289 21.2325 195.049 21.1183 195.806 20.9807C196.554 20.844 197.32 20.6831 198.054 20.468C198.34 20.3838 198.623 20.2912 198.901 20.1795C199.109 20.0953 199.311 20.0036 199.505 19.8843C199.631 19.8068 199.765 19.7101 199.863 19.5883C199.927 19.5083 199.98 19.4099 199.981 19.2957L199.982 19.2949Z" fill="url(#paint7_linear_438_950)"/>
<defs>
<linearGradient id="paint0_linear_438_950" x1="185.273" y1="5.49419" x2="193.954" y2="5.45925" gradientUnits="userSpaceOnUse">
<stop stop-color="#4545C6"/>
<stop offset="0.2" stop-color="#4F4FE2"/>
<stop offset="0.5" stop-color="#5959FF"/>
<stop offset="0.8" stop-color="#4D4DDC"/>
<stop offset="1" stop-color="#4040B8"/>
</linearGradient>
<linearGradient id="paint1_linear_438_950" x1="190.107" y1="1.01083" x2="190.107" y2="3.29886" gradientUnits="userSpaceOnUse">
<stop stop-color="#FFBA3B"/>
<stop offset="1" stop-color="#FCDE68"/>
</linearGradient>
<linearGradient id="paint2_linear_438_950" x1="184.73" y1="9.68505" x2="198.366" y2="9.68505" gradientUnits="userSpaceOnUse">
<stop stop-color="#4545C6"/>
<stop offset="0.2" stop-color="#4F4FE2"/>
<stop offset="0.5" stop-color="#5959FF"/>
<stop offset="0.8" stop-color="#4D4DDC"/>
<stop offset="1" stop-color="#4040B8"/>
</linearGradient>
<linearGradient id="paint3_linear_438_950" x1="182.499" y1="15.0345" x2="199.106" y2="15.0345" gradientUnits="userSpaceOnUse">
<stop stop-color="#4545C6"/>
<stop offset="0.2" stop-color="#4F4FE2"/>
<stop offset="0.5" stop-color="#5959FF"/>
<stop offset="0.8" stop-color="#4D4DDC"/>
<stop offset="1" stop-color="#4040B8"/>
</linearGradient>
<linearGradient id="paint4_linear_438_950" x1="190.942" y1="20.4713" x2="204.61" y2="22.2381" gradientUnits="userSpaceOnUse">
<stop stop-color="#4545C6"/>
<stop offset="0.2" stop-color="#5454E2"/>
<stop offset="0.5" stop-color="#6363FF"/>
<stop offset="0.8" stop-color="#5252DC"/>
<stop offset="1" stop-color="#4040B8"/>
</linearGradient>
<linearGradient id="paint5_linear_438_950" x1="193.956" y1="7.60655" x2="184.722" y2="7.60655" gradientUnits="userSpaceOnUse">
<stop stop-color="#7D7DF9"/>
<stop offset="0.05" stop-color="#6E6EFC"/>
<stop offset="0.2" stop-color="#5E5EFF"/>
<stop offset="0.6" stop-color="#7D7DF9"/>
<stop offset="0.85" stop-color="#9696FF"/>
<stop offset="0.96" stop-color="#8A8AFC"/>
<stop offset="1" stop-color="#7D7DF9"/>
</linearGradient>
<linearGradient id="paint6_linear_438_950" x1="198.366" y1="12.3252" x2="181.606" y2="12.3252" gradientUnits="userSpaceOnUse">
<stop stop-color="#7D7DF9"/>
<stop offset="0.05" stop-color="#6E6EFC"/>
<stop offset="0.2" stop-color="#5E5EFF"/>
<stop offset="0.6" stop-color="#7D7DF9"/>
<stop offset="0.85" stop-color="#9696FF"/>
<stop offset="0.96" stop-color="#8A8AFC"/>
<stop offset="1" stop-color="#7D7DF9"/>
</linearGradient>
<linearGradient id="paint7_linear_438_950" x1="199.106" y1="18.0397" x2="181.642" y2="18.0397" gradientUnits="userSpaceOnUse">
<stop stop-color="#7D7DF9"/>
<stop offset="0.05" stop-color="#6E6EFC"/>
<stop offset="0.2" stop-color="#5E5EFF"/>
<stop offset="0.6" stop-color="#7D7DF9"/>
<stop offset="0.85" stop-color="#9696FF"/>
<stop offset="0.96" stop-color="#8A8AFC"/>
<stop offset="1" stop-color="#7D7DF9"/>
</linearGradient>
</defs>
</svg>
