<svg width="17" height="20" viewBox="0 0 17 20" fill="none" xmlns="http://www.w3.org/2000/svg">
<path d="M4.25635 0.956543C5.02002 0.956543 5.71452 1.14469 6.33984 1.521C6.9707 1.89176 7.47152 2.39258 7.84229 3.02344C8.21305 3.64876 8.39844 4.34326 8.39844 5.10693C8.39844 5.15674 8.39844 5.20101 8.39844 5.23975C8.39844 5.27848 8.39567 5.31445 8.39014 5.34766C8.37907 5.49154 8.31543 5.60775 8.19922 5.69629C8.08854 5.7793 7.96956 5.8208 7.84229 5.8208C7.70947 5.8208 7.58773 5.7793 7.47705 5.69629C7.37191 5.60775 7.31657 5.4694 7.31104 5.28125C7.31104 5.24251 7.31104 5.20931 7.31104 5.18164C7.31104 5.15397 7.31104 5.12907 7.31104 5.10693C7.31104 4.54248 7.17269 4.0306 6.896 3.57129C6.62484 3.10645 6.25684 2.73568 5.79199 2.45898C5.33268 2.18229 4.8208 2.04395 4.25635 2.04395C3.69189 2.04395 3.17725 2.18229 2.7124 2.45898C2.24756 2.73568 1.87679 3.10645 1.6001 3.57129C1.32894 4.0306 1.19336 4.54248 1.19336 5.10693C1.19336 5.4777 1.25423 5.83187 1.37598 6.16943C1.50326 6.50146 1.67757 6.80029 1.89893 7.06592C2.01514 7.20426 2.06217 7.34261 2.04004 7.48096C2.02344 7.6193 1.96257 7.73551 1.85742 7.82959C1.75228 7.91813 1.63053 7.9624 1.49219 7.9624C1.41471 7.9624 1.33447 7.94303 1.25146 7.9043C1.17399 7.86556 1.09928 7.80469 1.02734 7.72168C0.739583 7.36198 0.512695 6.96077 0.34668 6.51807C0.186198 6.06982 0.105957 5.59945 0.105957 5.10693C0.105957 4.53141 0.213867 3.99463 0.429688 3.49658C0.645508 2.993 0.941569 2.55306 1.31787 2.17676C1.69971 1.79492 2.14242 1.49609 2.646 1.28027C3.14958 1.06445 3.68636 0.956543 4.25635 0.956543ZM12.0259 19.1934C10.6479 19.6969 9.34473 19.7523 8.11621 19.3594C6.89323 18.972 5.75602 18.1419 4.70459 16.8691L1.93213 13.5073C1.83252 13.3856 1.74398 13.2583 1.6665 13.1255C1.58903 12.9871 1.53092 12.8571 1.49219 12.7354C1.33724 12.3092 1.35938 11.9274 1.55859 11.5898C1.75781 11.2523 2.04834 11.0143 2.43018 10.876C2.70687 10.7764 2.98356 10.7681 3.26025 10.8511C3.53695 10.9285 3.79704 11.0946 4.04053 11.3491L5.01172 12.4116C5.03939 12.4393 5.06982 12.4476 5.10303 12.4365C5.14176 12.4255 5.15283 12.395 5.13623 12.3452L2.76221 5.8374C2.58512 5.34489 2.59066 4.89665 2.77881 4.49268C2.96696 4.08317 3.29346 3.79264 3.7583 3.62109C4.21761 3.45508 4.64925 3.46891 5.05322 3.6626C5.45719 3.85075 5.74772 4.19385 5.9248 4.69189L6.87109 7.28174C7.03158 7.16553 7.20589 7.07145 7.39404 6.99951C7.73714 6.87777 8.06364 6.86393 8.37354 6.95801C8.68343 7.04655 8.94629 7.22917 9.16211 7.50586C9.36133 7.34538 9.57438 7.22363 9.80127 7.14062C10.1278 7.02441 10.4321 7.00781 10.7144 7.09082C11.0021 7.16829 11.2428 7.33431 11.4365 7.58887C12.167 7.33431 12.8255 7.38688 13.4121 7.74658C13.9987 8.10075 14.4552 8.72607 14.7817 9.62256L15.4043 11.3242C15.847 12.5417 15.9964 13.6733 15.8525 14.7192C15.7142 15.7596 15.3158 16.6672 14.6572 17.4419C14.0042 18.2111 13.1271 18.7949 12.0259 19.1934ZM11.6772 18.106C12.5959 17.7739 13.3153 17.2952 13.8354 16.6699C14.3612 16.0446 14.6683 15.3003 14.7568 14.437C14.8509 13.5737 14.707 12.6191 14.3252 11.5732L13.8105 10.1538C13.5837 9.53402 13.3125 9.08854 12.9971 8.81738C12.6872 8.54069 12.3579 8.46598 12.0093 8.59326L12.333 9.48975C12.3828 9.63363 12.3745 9.76921 12.3081 9.89648C12.2417 10.0182 12.1449 10.1012 12.0176 10.1455C11.8848 10.1953 11.752 10.1953 11.6191 10.1455C11.4863 10.0902 11.395 9.99056 11.3452 9.84668L10.897 8.63477C10.825 8.43001 10.7116 8.2889 10.5566 8.21143C10.4017 8.12842 10.2274 8.12288 10.0337 8.19482C9.87321 8.2557 9.7321 8.34701 9.61035 8.46875L10.1416 9.94629C10.1969 10.0902 10.1914 10.2257 10.125 10.353C10.0586 10.4748 9.96175 10.5578 9.83447 10.6021C9.70166 10.6519 9.56608 10.6519 9.42773 10.6021C9.29492 10.5467 9.20361 10.4499 9.15381 10.3115L8.48975 8.49365C8.41781 8.2889 8.30436 8.14779 8.14941 8.07031C8 7.9873 7.82568 7.98177 7.62646 8.05371C7.46598 8.11458 7.32487 8.20589 7.20312 8.32764L7.9585 10.4111C8.0083 10.5439 8 10.674 7.93359 10.8013C7.87272 10.9285 7.77588 11.0171 7.64307 11.0669C7.51025 11.1167 7.37467 11.1139 7.23633 11.0586C7.10352 11.0033 7.01497 10.9064 6.9707 10.7681L4.8623 4.99902C4.80143 4.83301 4.70182 4.7168 4.56348 4.65039C4.43066 4.57845 4.28402 4.57015 4.12354 4.62549C3.96305 4.68636 3.84961 4.78874 3.7832 4.93262C3.7168 5.07096 3.71403 5.22314 3.7749 5.38916L6.72168 13.4741C6.78255 13.6567 6.78255 13.8255 6.72168 13.9805C6.66081 14.1299 6.55013 14.235 6.38965 14.2959C6.2513 14.3457 6.11019 14.3568 5.96631 14.3291C5.82243 14.2959 5.67025 14.1963 5.50977 14.0303L3.58398 12.0464C3.36263 11.8084 3.13298 11.731 2.89502 11.814C2.74007 11.8748 2.63216 11.9717 2.57129 12.1045C2.51595 12.2373 2.51318 12.3701 2.56299 12.5029C2.60726 12.6191 2.6709 12.7298 2.75391 12.835L5.54297 16.1802C6.50033 17.3423 7.48812 18.0534 8.50635 18.3135C9.53011 18.5736 10.5871 18.5044 11.6772 18.106Z" fill="#9C9C9C"/>
</svg>
